{
	"asset":{
		"version":"2.0",
		"generator":"Houdini GLTF 2.0 Exporter"
	},
	"animations":[
		{
			"name":"cam1",
			"channels":[
				{
					"target":{
						"node":2,
						"path":"translation"
					},
					"sampler":0
				},
				{
					"target":{
						"node":2,
						"path":"rotation"
					},
					"sampler":1
				}
			],
			"samplers":[
				{
					"input":4,
					"interpolation":"CUBICSPLINE",
					"output":3
				},
				{
					"input":4,
					"interpolation":"LINEAR",
					"output":5
				}
			]
		}
	],
	"accessors":[
		{
			"bufferView":0,
			"componentType":5125,
			"count":902814,
			"type":"SCALAR",
			"min":[0
			],
			"max":[601875
			]
		},
		{
			"bufferView":1,
			"componentType":5126,
			"count":601876,
			"type":"VEC3",
			"min":[-4.00938654,-3.99946237,-4.00928783
			],
			"max":[4.00604582,3.99596786,4.00411797
			]
		},
		{
			"bufferView":2,
			"componentType":5126,
			"count":601876,
			"type":"VEC3",
			"min":[0.00392156886,0.00784313772,0
			],
			"max":[0.988235295,0.988235295,0.980392158
			]
		},
		{
			"bufferView":3,
			"componentType":5126,
			"count":6,
			"type":"VEC3",
			"min":[-2.69964075,0,-2.31609297
			],
			"max":[0.579427719,4.16490746,0
			]
		},
		{
			"bufferView":4,
			"componentType":5126,
			"count":2,
			"type":"SCALAR",
			"min":[0
			],
			"max":[9.95833302
			]
		},
		{
			"bufferView":5,
			"componentType":5126,
			"count":240,
			"type":"VEC4",
			"min":[-0.0568011776,-0.943285167,-0.52094686,-0.0852720514
			],
			"max":[0.0518783145,-0.848135412,0.013890666,0.407946467
			]
		}
	],
	"buffers":[
		{
			"uri":"can-cam_data.bin",
			"byteLength":18060200,
			"name":"main_buffer"
		}
	],
	"bufferViews":[
		{
			"buffer":0,
			"byteLength":3611256,
			"target":34963
		},
		{
			"buffer":0,
			"byteOffset":3611256,
			"byteLength":7222512,
			"target":34962
		},
		{
			"buffer":0,
			"byteOffset":10833768,
			"byteLength":7222512,
			"target":34962
		},
		{
			"buffer":0,
			"byteOffset":18056280,
			"byteLength":72
		},
		{
			"buffer":0,
			"byteOffset":18056352,
			"byteLength":8
		},
		{
			"buffer":0,
			"byteOffset":18056360,
			"byteLength":3840
		}
	],
	"cameras":[
		{
			"name":"cam1",
			"type":"perspective",
			"perspective":{
				"aspectRatio":1,
				"yfov":1.26945496,
				"zfar":25388.5938,
				"znear":0.0253885947
			}
		}
	],
	"nodes":[
		{
			"children":[1,2,3
			],
			"name":"Root"
		},
		{
			"name":"geo1",
			"mesh":0
		},
		{
			"translation":[0.579427719,4.16490746,-2.31609297
			],
			"rotation":[0.0499929897,-0.855414152,-0.50862366,-0.084079273
			],
			"name":"cam1",
			"camera":0
		},
		{
			"name":"envlight1"
		}
	],
	"meshes":[
		{
			"primitives":[
				{
					"attributes":{
						"COLOR_0":2,
						"POSITION":1
					},
					"indices":0,
					"material":0
				}
			],
			"name":"OUT2"
		}
	],
	"materials":[
		{
			"name":"principledshader1",
			"pbrMetallicRoughness":{
				"baseColorFactor":[0.5,0.5,0.5,1
				],
				"metallicFactor":0
			}
		}
	],
	"scenes":[
		{
			"nodes":[0
			]
		}
	],
	"scene":0
}
